<svg width="335" height="44" viewBox="0 0 335 44" fill="none" xmlns="http://www.w3.org/2000/svg">
<rect width="335" height="44" rx="22" fill="#B72C2E"/>
<path d="M21.0622 18.328C21.0622 15.352 23.4622 13.336 27.0382 13.336C30.3502 13.336 32.4862 15.184 32.6782 18.184H30.3022C30.1822 16.456 28.9582 15.448 27.0142 15.448C24.8302 15.448 23.4142 16.552 23.4142 18.256C23.4142 19.648 24.2062 20.488 25.8382 20.872L28.6942 21.544C31.5262 22.192 32.9662 23.728 32.9662 26.176C32.9662 29.296 30.5422 31.288 26.8462 31.288C23.3182 31.288 20.9662 29.44 20.8222 26.464H23.2222C23.2702 28.12 24.6622 29.176 26.8462 29.176C29.1502 29.176 30.6142 28.096 30.6142 26.368C30.6142 25 29.8702 24.136 28.2142 23.752L25.3582 23.104C22.5262 22.456 21.0622 20.824 21.0622 18.328ZM37.8898 31H35.6338V21.16H33.3298V19.264H35.6338V15.592H37.8898V19.264H40.1938V21.16H37.8898V31ZM49.3704 19.264H51.6024V31H49.5864L49.3464 29.224C48.6744 30.448 47.1144 31.288 45.3864 31.288C42.6504 31.288 41.1144 29.44 41.1144 26.56V19.264H43.3704V25.816C43.3704 28.336 44.4504 29.296 46.1784 29.296C48.2424 29.296 49.3704 27.976 49.3704 25.456V19.264ZM58.3852 31.288C54.9772 31.288 52.9132 28.744 52.9132 25.168C52.9132 21.568 55.0012 18.928 58.4812 18.928C60.2812 18.928 61.7932 19.72 62.5852 21.16V13.336H64.8172V31H62.8012L62.6092 28.864C61.8412 30.472 60.2572 31.288 58.3852 31.288ZM58.8412 29.248C61.1452 29.248 62.5612 27.544 62.5612 25.096C62.5612 22.696 61.1452 20.968 58.8412 20.968C56.5372 20.968 55.1932 22.696 55.1932 25.096C55.1932 27.52 56.5372 29.248 58.8412 29.248ZM68.2158 16.48C67.3998 16.48 66.7278 15.808 66.7278 14.992C66.7278 14.152 67.3998 13.504 68.2158 13.504C69.0318 13.504 69.7038 14.152 69.7038 14.992C69.7038 15.808 69.0318 16.48 68.2158 16.48ZM67.1118 31V19.264H69.3678V31H67.1118ZM70.9151 25.12C70.9151 21.496 73.5071 18.952 77.0351 18.952C80.5391 18.952 83.1311 21.496 83.1311 25.12C83.1311 28.744 80.5391 31.288 77.0351 31.288C73.5071 31.288 70.9151 28.744 70.9151 25.12ZM73.1951 25.12C73.1951 27.568 74.7551 29.272 77.0351 29.272C79.2911 29.272 80.8751 27.568 80.8751 25.12C80.8751 22.672 79.2911 20.968 77.0351 20.968C74.7551 20.968 73.1951 22.672 73.1951 25.12ZM106.303 22.312C106.303 27.592 102.847 31.288 97.9269 31.288C93.0309 31.288 89.6229 27.592 89.6229 22.312C89.6229 17.056 93.0549 13.336 97.9509 13.336C102.871 13.336 106.303 17.032 106.303 22.312ZM103.831 22.312C103.831 18.28 101.479 15.616 97.9509 15.616C94.4229 15.616 92.0949 18.28 92.0949 22.312C92.0949 26.344 94.4229 29.032 97.9509 29.032C101.479 29.032 103.831 26.32 103.831 22.312ZM110.487 31L106.647 19.264H108.975L110.919 25.36C111.183 26.224 111.423 27.112 111.639 28.144C111.831 27.112 112.143 26.128 112.407 25.36L114.375 19.264H116.679L118.623 25.36C118.815 25.936 119.199 27.304 119.391 28.144C119.583 27.208 119.799 26.392 120.135 25.36L122.103 19.264H124.455L120.447 31H118.311L116.271 24.712C115.887 23.536 115.647 22.624 115.527 21.976C115.407 22.552 115.191 23.32 114.759 24.736L112.719 31H110.487ZM127.685 31H125.429V19.264H127.469L127.709 21.064C128.453 19.72 129.941 18.928 131.597 18.928C134.693 18.928 136.109 20.824 136.109 23.824V31H133.853V24.328C133.853 21.952 132.749 20.992 131.021 20.992C128.909 20.992 127.685 22.504 127.685 24.784V31ZM143.338 31.288C139.882 31.288 137.506 28.792 137.506 25.144C137.506 21.472 139.834 18.928 143.242 18.928C146.578 18.928 148.762 21.232 148.762 24.712V25.552L139.69 25.576C139.858 28.048 141.154 29.416 143.386 29.416C145.138 29.416 146.29 28.696 146.674 27.352H148.786C148.21 29.872 146.242 31.288 143.338 31.288ZM143.242 20.824C141.274 20.824 140.026 22 139.738 24.064H146.506C146.506 22.12 145.234 20.824 143.242 20.824ZM157.042 19.168V21.232H156.034C153.898 21.232 152.578 22.528 152.578 24.784V31H150.322V19.288H152.434L152.578 21.064C153.058 19.84 154.234 19.024 155.842 19.024C156.25 19.024 156.586 19.072 157.042 19.168ZM164.4 31H162.168L168.936 13.672H171.192L164.4 31ZM184.594 24.808H180.202V31H177.85V13.648H184.594C188.002 13.648 190.186 15.88 190.186 19.216C190.186 22.456 187.978 24.808 184.594 24.808ZM184.186 15.76H180.202V22.696H184.09C186.418 22.696 187.714 21.328 187.714 19.192C187.714 17.008 186.394 15.76 184.186 15.76ZM193.762 30.976H191.506V13.336H193.762V21.064C194.506 19.792 195.922 18.928 197.746 18.928C200.746 18.928 202.186 20.824 202.186 23.824V31H199.93V24.328C199.93 21.952 198.802 20.992 197.122 20.992C194.938 20.992 193.762 22.576 193.762 24.592V30.976ZM203.583 25.12C203.583 21.496 206.175 18.952 209.703 18.952C213.207 18.952 215.799 21.496 215.799 25.12C215.799 28.744 213.207 31.288 209.703 31.288C206.175 31.288 203.583 28.744 203.583 25.12ZM205.863 25.12C205.863 27.568 207.423 29.272 209.703 29.272C211.959 29.272 213.543 27.568 213.543 25.12C213.543 22.672 211.959 20.968 209.703 20.968C207.423 20.968 205.863 22.672 205.863 25.12ZM220.531 31H218.275V21.16H215.971V19.264H218.275V15.592H220.531V19.264H222.835V21.16H220.531V31ZM223.014 25.12C223.014 21.496 225.606 18.952 229.134 18.952C232.638 18.952 235.23 21.496 235.23 25.12C235.23 28.744 232.638 31.288 229.134 31.288C225.606 31.288 223.014 28.744 223.014 25.12ZM225.294 25.12C225.294 27.568 226.854 29.272 229.134 29.272C231.39 29.272 232.974 27.568 232.974 25.12C232.974 22.672 231.39 20.968 229.134 20.968C226.854 20.968 225.294 22.672 225.294 25.12ZM236.023 24.832C236.023 21.52 238.159 18.928 241.567 18.928C243.463 18.928 244.927 19.792 245.671 21.256L245.839 19.264H247.855V30.52C247.855 34.216 245.575 36.568 241.975 36.568C238.783 36.568 236.599 34.768 236.167 31.792H238.423C238.711 33.52 240.007 34.528 241.975 34.528C244.183 34.528 245.623 33.088 245.623 30.856V28.504C244.855 29.872 243.319 30.688 241.471 30.688C238.135 30.688 236.023 28.12 236.023 24.832ZM238.279 24.784C238.279 26.992 239.647 28.72 241.855 28.72C244.135 28.72 245.527 27.088 245.527 24.784C245.527 22.528 244.183 20.896 241.879 20.896C239.623 20.896 238.279 22.624 238.279 24.784ZM256.871 19.168V21.232H255.863C253.727 21.232 252.407 22.528 252.407 24.784V31H250.151V19.288H252.263L252.407 21.064C252.887 19.84 254.063 19.024 255.671 19.024C256.079 19.024 256.415 19.072 256.871 19.168ZM260.99 31.288C258.47 31.288 256.982 29.872 256.982 27.736C256.982 25.576 258.59 24.232 261.35 24.016L265.046 23.728V23.392C265.046 21.424 263.87 20.728 262.286 20.728C260.39 20.728 259.31 21.568 259.31 22.984H257.342C257.342 20.536 259.358 18.928 262.382 18.928C265.286 18.928 267.254 20.464 267.254 23.632V31H265.334L265.094 29.104C264.494 30.448 262.886 31.288 260.99 31.288ZM261.638 29.536C263.774 29.536 265.07 28.144 265.07 25.936V25.312L262.07 25.552C260.078 25.744 259.262 26.512 259.262 27.664C259.262 28.912 260.174 29.536 261.638 29.536ZM269.419 36.256V19.264H271.459L271.627 21.376C272.419 19.768 274.003 18.928 275.875 18.928C279.235 18.928 281.323 21.448 281.323 25.048C281.323 28.624 279.355 31.312 275.875 31.312C274.003 31.312 272.443 30.52 271.675 29.08V36.256H269.419ZM271.699 25.144C271.699 27.544 273.091 29.272 275.395 29.272C277.699 29.272 279.067 27.544 279.067 25.144C279.067 22.72 277.699 20.992 275.395 20.992C273.091 20.992 271.699 22.696 271.699 25.144ZM285.105 30.976H282.849V13.336H285.105V21.064C285.849 19.792 287.265 18.928 289.089 18.928C292.089 18.928 293.529 20.824 293.529 23.824V31H291.273V24.328C291.273 21.952 290.145 20.992 288.465 20.992C286.281 20.992 285.105 22.576 285.105 24.592V30.976ZM300.758 31.288C297.302 31.288 294.926 28.792 294.926 25.144C294.926 21.472 297.254 18.928 300.662 18.928C303.998 18.928 306.182 21.232 306.182 24.712V25.552L297.11 25.576C297.278 28.048 298.574 29.416 300.806 29.416C302.558 29.416 303.71 28.696 304.094 27.352H306.206C305.63 29.872 303.662 31.288 300.758 31.288ZM300.662 20.824C298.694 20.824 297.446 22 297.158 24.064H303.926C303.926 22.12 302.654 20.824 300.662 20.824ZM314.462 19.168V21.232H313.454C311.318 21.232 309.998 22.528 309.998 24.784V31H307.742V19.288H309.854L309.998 21.064C310.478 19.84 311.654 19.024 313.262 19.024C313.67 19.024 314.006 19.072 314.462 19.168Z" fill="white"/>
</svg>
