<svg width="643" height="64" viewBox="0 0 643 64" fill="none" xmlns="http://www.w3.org/2000/svg">
<path d="M8.19241 0.832211V47.6162H0.000406265V0.832211H8.19241ZM22.6589 47.6162H14.8509V16.0002H22.0829L22.7229 20.0962C24.7069 16.8962 28.5469 15.0402 32.8349 15.0402C40.7709 15.0402 44.8669 19.9682 44.8669 28.1602V47.6162H37.0589V30.0162C37.0589 24.7042 34.4349 22.1442 30.4029 22.1442C25.6029 22.1442 22.6589 25.4722 22.6589 30.5922V47.6162ZM48.1224 31.7442C48.1224 21.9522 54.5864 15.0402 63.9304 15.0402C72.5704 15.0402 78.4584 19.8402 79.2904 27.4562H71.4824C70.5864 23.8722 67.9624 22.0162 64.2504 22.0162C59.2584 22.0162 55.9304 25.7922 55.9304 31.7442C55.9304 37.6962 59.0024 41.4082 63.9944 41.4082C67.8984 41.4082 70.6504 39.4882 71.4824 36.0322H79.3544C78.3944 43.3922 72.2504 48.4482 63.9944 48.4482C54.3944 48.4482 48.1224 41.7922 48.1224 31.7442ZM80.7499 31.7442C80.7499 21.8882 87.8539 15.1042 97.6459 15.1042C107.438 15.1042 114.542 21.8882 114.542 31.7442C114.542 41.6002 107.438 48.3842 97.6459 48.3842C87.8539 48.3842 80.7499 41.6002 80.7499 31.7442ZM88.5579 31.7442C88.5579 37.5042 92.2699 41.4082 97.6459 41.4082C103.022 41.4082 106.734 37.5042 106.734 31.7442C106.734 25.9842 103.022 22.0802 97.6459 22.0802C92.2699 22.0802 88.5579 25.9842 88.5579 31.7442ZM125.979 47.6162H118.171V16.0002H125.339L125.979 19.7122C127.579 17.0882 130.779 15.0402 135.323 15.0402C140.123 15.0402 143.451 17.4082 145.115 21.0562C146.715 17.4082 150.427 15.0402 155.227 15.0402C162.907 15.0402 167.131 19.6482 167.131 26.9442V47.6162H159.387V28.9922C159.387 24.4482 156.955 22.0802 153.243 22.0802C149.467 22.0802 146.587 24.5122 146.587 29.6962V47.6162H138.779V28.9282C138.779 24.5122 136.411 22.1442 132.699 22.1442C128.987 22.1442 125.979 24.5762 125.979 29.6962V47.6162ZM176.14 9.66421C173.452 9.66421 171.34 7.55221 171.34 4.92821C171.34 2.30421 173.452 0.25621 176.14 0.25621C178.7 0.25621 180.812 2.30421 180.812 4.92821C180.812 7.55221 178.7 9.66421 176.14 9.66421ZM172.236 47.6162V16.0002H180.044V47.6162H172.236ZM193.359 47.6162H185.551V16.0002H192.783L193.423 20.0962C195.407 16.8962 199.247 15.0402 203.535 15.0402C211.471 15.0402 215.567 19.9682 215.567 28.1602V47.6162H207.759V30.0162C207.759 24.7042 205.135 22.1442 201.103 22.1442C196.303 22.1442 193.359 25.4722 193.359 30.5922V47.6162ZM218.886 31.1042C218.886 21.8882 224.902 14.9762 233.926 14.9762C238.662 14.9762 242.374 16.9602 244.23 20.3522L244.678 16.0002H251.91V46.0162C251.91 56.5762 245.574 63.1682 235.334 63.1682C226.246 63.1682 220.038 57.9842 219.078 49.5362H226.886C227.398 53.6322 230.534 56.0642 235.334 56.0642C240.71 56.0642 244.166 52.6722 244.166 47.4242V42.1762C242.182 45.1202 238.278 46.9762 233.734 46.9762C224.774 46.9762 218.886 40.2562 218.886 31.1042ZM226.758 30.9122C226.758 36.2242 230.15 40.1922 235.27 40.1922C240.646 40.1922 243.974 36.4162 243.974 30.9122C243.974 25.5362 240.71 21.8242 235.27 21.8242C230.086 21.8242 226.758 25.7282 226.758 30.9122ZM273.273 47.6162V0.832211H291.897C301.113 0.832211 306.745 5.63221 306.745 13.4402C306.745 18.6242 304.441 22.3362 300.025 24.1922C304.953 25.7922 307.449 29.5042 307.449 34.9442C307.449 42.9442 301.881 47.6162 292.217 47.6162H273.273ZM291.193 8.06421H281.465V20.8002H291.385C295.865 20.8002 298.361 18.4322 298.361 14.2722C298.361 10.2402 295.801 8.06421 291.193 8.06421ZM291.897 27.7122H281.465V40.3842H291.897C296.505 40.3842 299.065 38.1442 299.065 33.9202C299.065 29.9522 296.441 27.7122 291.897 27.7122ZM309.392 31.7442C309.392 21.8882 316.496 15.1042 326.288 15.1042C336.08 15.1042 343.184 21.8882 343.184 31.7442C343.184 41.6002 336.08 48.3842 326.288 48.3842C316.496 48.3842 309.392 41.6002 309.392 31.7442ZM317.2 31.7442C317.2 37.5042 320.912 41.4082 326.288 41.4082C331.664 41.4082 335.376 37.5042 335.376 31.7442C335.376 25.9842 331.664 22.0802 326.288 22.0802C320.912 22.0802 317.2 25.9842 317.2 31.7442ZM344.957 31.7442C344.957 21.8882 352.061 15.1042 361.853 15.1042C371.645 15.1042 378.749 21.8882 378.749 31.7442C378.749 41.6002 371.645 48.3842 361.853 48.3842C352.061 48.3842 344.957 41.6002 344.957 31.7442ZM352.765 31.7442C352.765 37.5042 356.477 41.4082 361.853 41.4082C367.229 41.4082 370.941 37.5042 370.941 31.7442C370.941 25.9842 367.229 22.0802 361.853 22.0802C356.477 22.0802 352.765 25.9842 352.765 31.7442ZM390.25 47.6162H382.506V0.000209808H390.25V29.2482L402.538 16.0002H412.33L400.298 28.5442L412.074 47.6162H403.114L394.858 34.3042L390.25 39.1042V47.6162ZM418.16 9.66421C415.472 9.66421 413.36 7.55221 413.36 4.92821C413.36 2.30421 415.472 0.25621 418.16 0.25621C420.72 0.25621 422.832 2.30421 422.832 4.92821C422.832 7.55221 420.72 9.66421 418.16 9.66421ZM414.256 47.6162V16.0002H422.064V47.6162H414.256ZM435.379 47.6162H427.571V16.0002H434.803L435.443 20.0962C437.427 16.8962 441.267 15.0402 445.555 15.0402C453.491 15.0402 457.587 19.9682 457.587 28.1602V47.6162H449.779V30.0162C449.779 24.7042 447.155 22.1442 443.123 22.1442C438.323 22.1442 435.379 25.4722 435.379 30.5922V47.6162ZM460.906 31.1042C460.906 21.8882 466.922 14.9762 475.946 14.9762C480.682 14.9762 484.394 16.9602 486.25 20.3522L486.698 16.0002H493.93V46.0162C493.93 56.5762 487.594 63.1682 477.354 63.1682C468.266 63.1682 462.058 57.9842 461.098 49.5362H468.906C469.418 53.6322 472.554 56.0642 477.354 56.0642C482.73 56.0642 486.186 52.6722 486.186 47.4242V42.1762C484.202 45.1202 480.298 46.9762 475.754 46.9762C466.794 46.9762 460.906 40.2562 460.906 31.1042ZM468.778 30.9122C468.778 36.2242 472.17 40.1922 477.29 40.1922C482.666 40.1922 485.994 36.4162 485.994 30.9122C485.994 25.5362 482.73 21.8242 477.29 21.8242C472.106 21.8242 468.778 25.7282 468.778 30.9122ZM519.325 47.6162H510.813L527.709 0.832211H536.093L552.989 47.6162H544.349L540.573 36.8002H523.101L519.325 47.6162ZM530.845 14.7842L525.533 29.8882H538.205L532.829 14.7842C532.445 13.5682 531.997 12.1602 531.869 11.2002C531.677 12.0962 531.293 13.5042 530.845 14.7842ZM563.015 47.6162H555.271V0.000209808H563.015V47.6162ZM582.79 48.4482C573.382 48.4482 566.79 41.6002 566.79 31.8082C566.79 21.8882 573.254 15.0402 582.534 15.0402C592.006 15.0402 598.022 21.3762 598.022 31.2322V33.6002L574.214 33.6642C574.79 39.2322 577.734 42.0482 582.918 42.0482C587.206 42.0482 590.022 40.3842 590.918 37.3762H598.15C596.806 44.2882 591.046 48.4482 582.79 48.4482ZM582.598 21.4402C577.99 21.4402 575.174 23.9362 574.406 28.6722H590.278C590.278 24.3202 587.27 21.4402 582.598 21.4402ZM621.551 15.8722V23.1042H618.671C613.039 23.1042 609.519 26.1122 609.519 32.2562V47.6162H601.711V16.0642H609.071L609.519 20.6722C610.863 17.5362 613.871 15.4242 618.095 15.4242C619.183 15.4242 620.271 15.5522 621.551 15.8722ZM636.278 47.6162H628.47V22.5282H622.39V16.0002H628.47V6.14421H636.278V16.0002H642.422V22.5282H636.278V47.6162Z" fill="url(#paint0_linear_56_51)"/>
<defs>
<linearGradient id="paint0_linear_56_51" x1="319.316" y1="-9.38379" x2="319.316" y2="236.511" gradientUnits="userSpaceOnUse">
<stop stop-color="white"/>
<stop offset="1" stop-color="#999999"/>
</linearGradient>
</defs>
</svg>
