<svg width="377" height="72" viewBox="0 0 377 72" fill="none" xmlns="http://www.w3.org/2000/svg">
<path d="M94.5835 27.5533V24.8867C94.5841 21.6184 93.9385 18.3819 92.6834 15.3622C91.4282 12.3425 89.5883 9.59877 87.2683 7.28769C84.9487 4.97661 82.1945 3.14352 79.1632 1.89307C76.1323 0.642627 72.8836 -0.000654897 69.6028 5.00301e-07H24.9809C18.3579 0.00744864 12.0082 2.63183 7.32502 7.29738C2.64179 11.9629 0.00747638 18.2886 0 24.8867V47.1132C0.00747638 53.7114 2.64179 60.0369 7.32502 64.7025C12.0082 69.3681 18.3579 71.9925 24.9809 72H69.5958C76.2217 71.9997 82.5763 69.3777 87.262 64.7109C91.948 60.0441 94.5814 53.7141 94.5835 47.1132V44.4465H55.7637V47.1132C55.7695 50.2797 55.0001 53.3997 53.5221 56.2029C52.0444 59.0061 49.9027 61.4082 47.2828 63.2007C46.3096 62.5299 45.3989 61.7736 44.5612 60.9414L44.5603 60.9399C41.1195 57.5313 39.0793 52.9662 38.8393 48.138C41.7982 44.7816 43.4304 40.4673 43.4304 36.0003C43.4304 31.5333 41.7988 27.2189 38.8399 23.8625C38.9971 20.8755 39.84 17.9643 41.3035 15.3528C42.7673 12.7412 44.8129 10.499 47.2831 8.79873C49.903 10.5918 52.0453 12.9938 53.5239 15.7969C55.0028 18.6001 55.7737 21.7199 55.7704 24.8866V27.5532L94.5835 27.5533ZM53.8015 64.7121C57.8467 60.7053 60.3808 55.4316 60.9764 49.7799H89.0501C88.3997 54.4599 86.0719 58.7475 82.4962 61.8513C78.9205 64.9551 74.3384 66.6654 69.5958 66.6666H51.5948C52.3684 66.0591 53.1053 65.4063 53.8015 64.7121ZM34.9525 27.552C36.9686 29.9074 38.0762 32.9013 38.0771 35.997C38.0777 39.0924 36.9713 42.087 34.9561 44.4432H5.35348V27.552H34.9525ZM40.7753 64.7121C41.1463 65.0817 41.5299 65.4402 41.9256 65.7876C41.7775 65.8332 41.6296 65.88 41.4802 65.922C41.3119 65.9697 41.143 66.015 40.9737 66.0579C40.7033 66.1263 40.4317 66.1905 40.1586 66.2472C39.9833 66.2835 39.8068 66.3153 39.6304 66.3468C39.3684 66.3939 39.1064 66.4398 38.8426 66.4764C38.6146 66.5073 38.3852 66.5295 38.1554 66.5529C37.9404 66.5751 37.7257 66.6012 37.5098 66.6162C37.0547 66.6471 36.5973 66.6666 36.1363 66.6666H24.981C20.2408 66.6603 15.6626 64.9473 12.0901 61.8435C8.51761 58.7397 6.19151 54.4542 5.54043 49.7766H33.604C34.1979 55.4289 36.7307 60.7041 40.7753 64.7121ZM33.6031 22.2187H5.54091C6.19302 17.5421 8.51951 13.2577 12.0918 10.1549C15.6641 7.05201 20.2415 5.33967 24.9809 5.33328H36.1363C36.5964 5.33328 37.0532 5.35266 37.5073 5.38341C37.7296 5.39889 37.9506 5.42574 38.172 5.44887C38.3936 5.47125 38.6158 5.49261 38.8357 5.52258C39.11 5.5605 39.3825 5.60802 39.6544 5.65749C39.8171 5.6868 39.98 5.7156 40.1417 5.74914C40.4302 5.80887 40.7166 5.87643 41.002 5.94918C41.1505 5.98692 41.2987 6.02658 41.4462 6.06813C41.6058 6.11274 41.7633 6.1632 41.9217 6.21186C37.2375 10.3238 34.2698 16.0347 33.6031 22.2187ZM53.8024 7.28772C53.1062 6.59364 52.3693 5.94102 51.596 5.33328H69.6028C74.3451 5.33265 78.9275 7.04253 82.5022 10.1468C86.0773 13.2511 88.4033 17.5397 89.0501 22.22H60.983C60.3874 16.5671 57.8509 11.2925 53.8024 7.28769V7.28772Z" fill="white"/>
<path d="M160.42 72.0029C155.522 72.0464 150.666 71.0993 146.146 69.2183C141.886 67.4696 138.022 64.8878 134.781 61.6253C131.541 58.3628 128.99 54.4859 127.28 50.2241C125.467 45.7712 124.552 41.0066 124.585 36.2018V36.0029C124.548 31.2137 125.464 26.4652 127.28 22.0305C129.018 17.7766 131.56 13.8942 134.766 10.5939C138.03 7.26557 141.935 4.62737 146.246 2.83717C150.927 0.904268 155.953 -0.0600337 161.019 0.00289278C164.016 -0.0207705 167.009 0.245768 169.954 0.798761C172.468 1.27573 174.927 2.0088 177.291 2.98639C179.438 3.88874 181.48 5.02265 183.38 6.36782C185.228 7.68155 186.964 9.14492 188.571 10.7431L178.788 21.9807C176.288 19.6866 173.484 17.7458 170.453 16.2127C167.481 14.7889 164.217 14.0739 160.919 14.1245C158.117 14.0987 155.342 14.6752 152.784 15.8148C150.334 16.9091 148.142 18.5014 146.346 20.4895C144.528 22.5126 143.106 24.8566 142.153 27.4006C141.143 30.0872 140.636 32.9351 140.656 35.804V36.0029C140.638 38.8874 141.146 41.7515 142.153 44.456C143.093 47.0102 144.497 49.37 146.296 51.4169C148.124 53.4776 150.377 55.1219 152.9 56.2373C155.424 57.353 158.159 57.9137 160.92 57.8813C164.426 57.9899 167.906 57.2387 171.052 55.6937C174.045 54.0689 176.813 52.0628 179.287 49.7267L189.07 59.5715C187.34 61.433 185.471 63.1616 183.48 64.7426C181.522 66.2852 179.395 67.6028 177.141 68.6714C174.739 69.8006 172.208 70.6352 169.604 71.1572C166.579 71.7485 163.502 72.0317 160.42 72.0029Z" fill="white"/>
<path d="M198.852 1.19727H214.224V28.7442H242.574V1.19727H257.947V70.8097H242.574V42.8647H214.224V70.8097H198.852V1.19727Z" fill="white"/>
<path d="M272.92 1.19727H288.293V70.8097H272.92V1.19727Z" fill="white"/>
<path d="M303.268 1.19649H331.815C335.631 1.13694 339.428 1.72534 343.045 2.93645C346.149 3.98576 349.004 5.66144 351.431 7.85888C353.726 9.98285 355.533 12.579 356.722 15.4674C357.984 18.5779 358.61 21.9076 358.568 25.2625V25.4614C358.647 29.1277 357.897 32.7647 356.373 36.1022C354.967 39.0773 352.901 41.6954 350.332 43.7594C347.67 45.8681 344.617 47.4386 341.349 48.3833C337.769 49.4336 334.05 49.9532 330.319 49.9253H318.638V70.8089H303.268V1.19649ZM330.819 36.3011C334.676 36.3011 337.672 35.2901 339.801 33.2678C340.837 32.3117 341.656 31.1486 342.205 29.8545C342.756 28.5605 343.027 27.165 342.996 25.7599V25.5609C343.093 24.0824 342.84 22.6019 342.259 21.2377C341.678 19.8736 340.786 18.6637 339.651 17.7047C337.01 15.7858 333.782 14.837 330.517 15.0197H318.638V36.3011H330.819Z" fill="white"/>
<path d="M374.794 12.9983C373.345 14.4239 371.58 15.1367 369.5 15.1367C367.42 15.1367 365.645 14.4239 364.174 12.9983C362.725 11.5727 362 9.78548 362 7.63672C362 5.50862 362.725 3.73176 364.174 2.30614C365.645 0.859859 367.42 0.136719 369.5 0.136719C371.58 0.136719 373.345 0.859859 374.794 2.30614C376.265 3.73176 377 5.50862 377 7.63672C377 9.78548 376.265 11.5727 374.794 12.9983ZM365.025 12.2545C366.202 13.4528 367.693 14.052 369.5 14.052C371.307 14.052 372.788 13.4528 373.943 12.2545C375.12 11.0355 375.708 9.49622 375.708 7.63672C375.708 5.79788 375.12 4.26895 373.943 3.04994C372.767 1.83093 371.286 1.22143 369.5 1.22143C367.714 1.22143 366.233 1.83093 365.057 3.04994C363.88 4.26895 363.292 5.79788 363.292 7.63672C363.292 9.49622 363.87 11.0355 365.025 12.2545ZM366.569 11.5107V3.5768H370.288C371.023 3.5768 371.632 3.79374 372.116 4.22763C372.599 4.64085 372.84 5.16771 372.84 5.80821C372.84 6.8206 372.336 7.45077 371.328 7.6987V7.72969C372.084 7.93631 372.504 8.4735 372.588 9.34126C372.609 9.52721 372.63 9.73383 372.651 9.9611C372.672 10.1884 372.683 10.3743 372.683 10.519C372.704 10.6636 372.714 10.8082 372.714 10.9528C372.735 11.0975 372.756 11.2111 372.777 11.2937C372.819 11.3557 372.872 11.397 372.935 11.4177V11.5107H371.391C371.202 11.428 371.086 10.8185 371.044 9.68217C371.002 8.77308 370.487 8.31854 369.5 8.31854H368.176V11.5107H366.569ZM368.176 4.87845V7.10986H369.941C370.824 7.10986 371.265 6.73796 371.265 5.99416C371.265 5.25035 370.824 4.87845 369.941 4.87845H368.176Z" fill="white"/>
</svg>
