<svg width="140" height="44" viewBox="0 0 140 44" fill="none" xmlns="http://www.w3.org/2000/svg">
<rect width="140" height="44" rx="22" fill="#2CB73C"/>
<path d="M29.5838 31.264C24.6398 31.264 21.3518 27.712 21.3518 22.336C21.3518 16.984 24.7358 13.36 29.7038 13.36C33.6158 13.36 36.6158 15.688 37.2638 19.24H34.7438C34.0958 16.984 32.1518 15.616 29.6318 15.616C26.1278 15.616 23.8238 18.256 23.8238 22.312C23.8238 26.368 26.1278 29.008 29.6318 29.008C32.1758 29.008 34.1918 27.64 34.8398 25.504H37.3358C36.5918 28.96 33.4958 31.264 29.5838 31.264ZM46.9878 19.264H49.2198V31H47.2038L46.9638 29.224C46.2918 30.448 44.7318 31.288 43.0038 31.288C40.2678 31.288 38.7318 29.44 38.7318 26.56V19.264H40.9878V25.816C40.9878 28.336 42.0678 29.296 43.7958 29.296C45.8598 29.296 46.9878 27.976 46.9878 25.456V19.264ZM50.3386 27.592H52.4986C52.4986 28.792 53.4106 29.512 54.8986 29.512C56.4826 29.512 57.3946 28.864 57.3946 27.784C57.3946 26.992 57.0106 26.512 55.7866 26.2L53.7226 25.72C51.6346 25.216 50.6506 24.184 50.6506 22.456C50.6506 20.296 52.4746 18.928 55.0666 18.928C57.6346 18.928 59.3146 20.368 59.3626 22.6H57.2026C57.1546 21.424 56.3626 20.68 54.9946 20.68C53.5786 20.68 52.7866 21.304 52.7866 22.384C52.7866 23.176 53.3626 23.704 54.5146 23.992L56.5786 24.496C58.5706 24.976 59.5546 25.888 59.5546 27.64C59.5546 29.872 57.6346 31.288 54.8506 31.288C52.0906 31.288 50.3386 29.824 50.3386 27.592ZM64.4084 31H62.1524V21.16H59.8484V19.264H62.1524V15.592H64.4084V19.264H66.7124V21.16H64.4084V31ZM66.8918 25.12C66.8918 21.496 69.4838 18.952 73.0118 18.952C76.5158 18.952 79.1078 21.496 79.1078 25.12C79.1078 28.744 76.5158 31.288 73.0118 31.288C69.4838 31.288 66.8918 28.744 66.8918 25.12ZM69.1718 25.12C69.1718 27.568 70.7318 29.272 73.0118 29.272C75.2678 29.272 76.8518 27.568 76.8518 25.12C76.8518 22.672 75.2678 20.968 73.0118 20.968C70.7318 20.968 69.1718 22.672 69.1718 25.12ZM82.9011 31H80.6451V19.264H82.6611L82.8771 20.8C83.4771 19.696 84.7251 18.928 86.3811 18.928C88.2051 18.928 89.5011 19.84 90.1011 21.304C90.6531 19.84 92.0691 18.928 93.8931 18.928C96.5811 18.928 98.2131 20.608 98.2131 23.32V31H96.0051V23.872C96.0051 22.024 94.9731 20.968 93.3891 20.968C91.6851 20.968 90.5571 22.168 90.5571 24.04V31H88.3251V23.848C88.3251 22 87.3171 20.992 85.7331 20.992C84.0291 20.992 82.9011 22.168 82.9011 24.04V31ZM105.444 31.288C101.988 31.288 99.6124 28.792 99.6124 25.144C99.6124 21.472 101.94 18.928 105.348 18.928C108.684 18.928 110.868 21.232 110.868 24.712V25.552L101.796 25.576C101.964 28.048 103.26 29.416 105.492 29.416C107.244 29.416 108.396 28.696 108.78 27.352H110.892C110.316 29.872 108.348 31.288 105.444 31.288ZM105.348 20.824C103.38 20.824 102.132 22 101.844 24.064H108.612C108.612 22.12 107.34 20.824 105.348 20.824ZM119.148 19.168V21.232H118.14C116.004 21.232 114.684 22.528 114.684 24.784V31H112.428V19.288H114.54L114.684 21.064C115.164 19.84 116.34 19.024 117.948 19.024C118.356 19.024 118.692 19.072 119.148 19.168Z" fill="white"/>
</svg>
