<svg width="835" height="57" viewBox="0 0 835 57" fill="none" xmlns="http://www.w3.org/2000/svg">
<path d="M-0.000248522 42.4082V0.741203H16.5868C24.7948 0.741203 29.8108 5.0162 29.8108 11.9702C29.8108 16.5872 27.7588 19.8932 23.8258 21.5462C28.2148 22.9712 30.4378 26.2772 30.4378 31.1222C30.4378 38.2472 25.4788 42.4082 16.8718 42.4082H-0.000248522ZM15.9598 7.1822H7.29575V18.5252H16.1308C20.1208 18.5252 22.3438 16.4162 22.3438 12.7112C22.3438 9.1202 20.0638 7.1822 15.9598 7.1822ZM16.5868 24.6812H7.29575V35.9672H16.5868C20.6908 35.9672 22.9708 33.9722 22.9708 30.2102C22.9708 26.6762 20.6338 24.6812 16.5868 24.6812ZM32.1687 28.2722C32.1687 19.4942 38.4957 13.4522 47.2167 13.4522C55.9377 13.4522 62.2647 19.4942 62.2647 28.2722C62.2647 37.0502 55.9377 43.0922 47.2167 43.0922C38.4957 43.0922 32.1687 37.0502 32.1687 28.2722ZM39.1227 28.2722C39.1227 33.4022 42.4287 36.8792 47.2167 36.8792C52.0047 36.8792 55.3107 33.4022 55.3107 28.2722C55.3107 23.1422 52.0047 19.6652 47.2167 19.6652C42.4287 19.6652 39.1227 23.1422 39.1227 28.2722ZM63.8438 28.2722C63.8438 19.4942 70.1708 13.4522 78.8918 13.4522C87.6128 13.4522 93.9398 19.4942 93.9398 28.2722C93.9398 37.0502 87.6128 43.0922 78.8918 43.0922C70.1708 43.0922 63.8438 37.0502 63.8438 28.2722ZM70.7978 28.2722C70.7978 33.4022 74.1038 36.8792 78.8918 36.8792C83.6798 36.8792 86.9858 33.4022 86.9858 28.2722C86.9858 23.1422 83.6798 19.6652 78.8918 19.6652C74.1038 19.6652 70.7978 23.1422 70.7978 28.2722ZM104.183 42.4082H97.2858V0.000202119H104.183V26.0492L115.127 14.2502H123.848L113.132 25.4222L123.62 42.4082H115.64L108.287 30.5522L104.183 34.8272V42.4082ZM129.04 8.6072C126.646 8.6072 124.765 6.7262 124.765 4.3892C124.765 2.0522 126.646 0.228203 129.04 0.228203C131.32 0.228203 133.201 2.0522 133.201 4.3892C133.201 6.7262 131.32 8.6072 129.04 8.6072ZM125.563 42.4082V14.2502H132.517V42.4082H125.563ZM144.375 42.4082H137.421V14.2502H143.862L144.432 17.8982C146.199 15.0482 149.619 13.3952 153.438 13.3952C160.506 13.3952 164.154 17.7842 164.154 25.0802V42.4082H157.2V26.7332C157.2 22.0022 154.863 19.7222 151.272 19.7222C146.997 19.7222 144.375 22.6862 144.375 27.2462V42.4082ZM167.111 27.7022C167.111 19.4942 172.469 13.3382 180.506 13.3382C184.724 13.3382 188.03 15.1052 189.683 18.1262L190.082 14.2502H196.523V40.9832C196.523 50.3882 190.88 56.2592 181.76 56.2592C173.666 56.2592 168.137 51.6422 167.282 44.1182H174.236C174.692 47.7662 177.485 49.9322 181.76 49.9322C186.548 49.9322 189.626 46.9112 189.626 42.2372V37.5632C187.859 40.1852 184.382 41.8382 180.335 41.8382C172.355 41.8382 167.111 35.8532 167.111 27.7022ZM174.122 27.5312C174.122 32.2622 177.143 35.7962 181.703 35.7962C186.491 35.7962 189.455 32.4332 189.455 27.5312C189.455 22.7432 186.548 19.4372 181.703 19.4372C177.086 19.4372 174.122 22.9142 174.122 27.5312ZM233.162 43.0922C221.021 43.0922 213.155 34.6562 213.155 21.6032C213.155 8.6642 221.306 0.0572014 233.504 0.0572014C243.365 0.0572014 250.718 5.8142 252.143 14.7632H244.448C243.023 9.9182 238.862 7.0682 233.333 7.0682C225.638 7.0682 220.793 12.6542 220.793 21.5462C220.793 30.3812 225.695 36.0812 233.333 36.0812C238.976 36.0812 243.308 33.1172 244.676 28.5002H252.257C250.661 37.2782 243.023 43.0922 233.162 43.0922ZM253.841 28.2722C253.841 19.4942 260.168 13.4522 268.889 13.4522C277.61 13.4522 283.937 19.4942 283.937 28.2722C283.937 37.0502 277.61 43.0922 268.889 43.0922C260.168 43.0922 253.841 37.0502 253.841 28.2722ZM260.795 28.2722C260.795 33.4022 264.101 36.8792 268.889 36.8792C273.677 36.8792 276.983 33.4022 276.983 28.2722C276.983 23.1422 273.677 19.6652 268.889 19.6652C264.101 19.6652 260.795 23.1422 260.795 28.2722ZM294.123 42.4082H287.169V14.2502H293.61L294.18 17.8982C295.947 15.0482 299.367 13.3952 303.186 13.3952C310.254 13.3952 313.902 17.7842 313.902 25.0802V42.4082H306.948V26.7332C306.948 22.0022 304.611 19.7222 301.02 19.7222C296.745 19.7222 294.123 22.6862 294.123 27.2462V42.4082ZM338.119 42.4082V20.0642H326.605V42.4082H319.708V20.0642H315.661V14.2502H319.708V10.8302C319.708 3.1922 323.698 0.000202119 329.398 0.000202119C330.481 0.000202119 331.792 0.0572014 332.989 0.285202V6.2132H330.538C327.403 6.2132 326.605 8.0372 326.605 10.8302V14.2502H345.073V42.4082H338.119ZM341.596 8.4932C339.259 8.4932 337.435 6.6692 337.435 4.3322C337.435 2.0522 339.259 0.228203 341.596 0.228203C343.876 0.228203 345.7 2.0522 345.7 4.3322C345.7 6.6692 343.876 8.4932 341.596 8.4932ZM367.632 14.1362V20.5772H365.067C360.051 20.5772 356.916 23.2562 356.916 28.7282V42.4082H349.962V14.3072H356.517L356.916 18.4112C358.113 15.6182 360.792 13.7372 364.554 13.7372C365.523 13.7372 366.492 13.8512 367.632 14.1362ZM377.013 42.4082H370.059V14.2502H376.443L377.013 17.5562C378.438 15.2192 381.288 13.3952 385.335 13.3952C389.61 13.3952 392.574 15.5042 394.056 18.7532C395.481 15.5042 398.787 13.3952 403.062 13.3952C409.902 13.3952 413.664 17.4992 413.664 23.9972V42.4082H406.767V25.8212C406.767 21.7742 404.601 19.6652 401.295 19.6652C397.932 19.6652 395.367 21.8312 395.367 26.4482V42.4082H388.413V25.7642C388.413 21.8312 386.304 19.7222 382.998 19.7222C379.692 19.7222 377.013 21.8882 377.013 26.4482V42.4082ZM426.59 43.1492C420.605 43.1492 416.957 39.6722 416.957 34.3712C416.957 29.1842 420.719 25.9352 427.388 25.4222L435.824 24.7952V24.1682C435.824 20.3492 433.544 18.8102 430.01 18.8102C425.906 18.8102 423.626 20.5202 423.626 23.4842H417.698C417.698 17.3852 422.714 13.3952 430.352 13.3952C437.933 13.3952 442.607 17.4992 442.607 25.3082V42.4082H436.508L435.995 38.2472C434.798 41.1542 430.979 43.1492 426.59 43.1492ZM428.87 37.9052C433.145 37.9052 435.881 35.3402 435.881 31.0082V29.5262L430.01 29.9822C425.678 30.3812 424.025 31.8062 424.025 34.0862C424.025 36.6512 425.735 37.9052 428.87 37.9052ZM456.345 42.4082H449.391V20.0642H443.976V14.2502H449.391V5.4722H456.345V14.2502H461.817V20.0642H456.345V42.4082ZM467.337 8.6072C464.943 8.6072 463.062 6.7262 463.062 4.3892C463.062 2.0522 464.943 0.228203 467.337 0.228203C469.617 0.228203 471.498 2.0522 471.498 4.3892C471.498 6.7262 469.617 8.6072 467.337 8.6072ZM463.86 42.4082V14.2502H470.814V42.4082H463.86ZM474.066 28.2722C474.066 19.4942 480.393 13.4522 489.114 13.4522C497.835 13.4522 504.162 19.4942 504.162 28.2722C504.162 37.0502 497.835 43.0922 489.114 43.0922C480.393 43.0922 474.066 37.0502 474.066 28.2722ZM481.02 28.2722C481.02 33.4022 484.326 36.8792 489.114 36.8792C493.902 36.8792 497.208 33.4022 497.208 28.2722C497.208 23.1422 493.902 19.6652 489.114 19.6652C484.326 19.6652 481.02 23.1422 481.02 28.2722ZM514.348 42.4082H507.394V14.2502H513.835L514.405 17.8982C516.172 15.0482 519.592 13.3952 523.411 13.3952C530.479 13.3952 534.127 17.7842 534.127 25.0802V42.4082H527.173V26.7332C527.173 22.0022 524.836 19.7222 521.245 19.7222C516.97 19.7222 514.348 22.6862 514.348 27.2462V42.4082ZM552.731 20.2922H564.074V8.9492H569.888V20.2922H581.231V26.1062H569.888V37.5062H564.074V26.1062H552.731V20.2922ZM608.517 42.4082H601.221V0.741203H617.124C626.586 0.741203 632.115 5.5292 632.115 13.7372C632.115 19.3232 629.493 23.3132 624.591 25.3082L632.514 42.4082H624.534L617.466 26.8472H608.517V42.4082ZM608.517 7.2392V20.4062H617.124C621.741 20.4062 624.477 17.9552 624.477 13.7372C624.477 9.5762 621.741 7.2392 617.124 7.2392H608.517ZM646.693 43.1492C638.314 43.1492 632.443 37.0502 632.443 28.3292C632.443 19.4942 638.2 13.3952 646.465 13.3952C654.901 13.3952 660.259 19.0382 660.259 27.8162V29.9252L639.055 29.9822C639.568 34.9412 642.19 37.4492 646.807 37.4492C650.626 37.4492 653.134 35.9672 653.932 33.2882H660.373C659.176 39.4442 654.046 43.1492 646.693 43.1492ZM646.522 19.0952C642.418 19.0952 639.91 21.3182 639.226 25.5362H653.362C653.362 21.6602 650.683 19.0952 646.522 19.0952ZM670.499 42.4082H663.545V14.2502H669.929L670.499 17.5562C671.924 15.2192 674.774 13.3952 678.821 13.3952C683.096 13.3952 686.06 15.5042 687.542 18.7532C688.967 15.5042 692.273 13.3952 696.548 13.3952C703.388 13.3952 707.15 17.4992 707.15 23.9972V42.4082H700.253V25.8212C700.253 21.7742 698.087 19.6652 694.781 19.6652C691.418 19.6652 688.853 21.8312 688.853 26.4482V42.4082H681.899V25.7642C681.899 21.8312 679.79 19.7222 676.484 19.7222C673.178 19.7222 670.499 21.8882 670.499 26.4482V42.4082ZM715.173 8.6072C712.779 8.6072 710.898 6.7262 710.898 4.3892C710.898 2.0522 712.779 0.228203 715.173 0.228203C717.453 0.228203 719.334 2.0522 719.334 4.3892C719.334 6.7262 717.453 8.6072 715.173 8.6072ZM711.696 42.4082V14.2502H718.65V42.4082H711.696ZM730.509 42.4082H723.555V14.2502H729.996L730.566 17.8982C732.333 15.0482 735.753 13.3952 739.572 13.3952C746.64 13.3952 750.288 17.7842 750.288 25.0802V42.4082H743.334V26.7332C743.334 22.0022 740.997 19.7222 737.406 19.7222C733.131 19.7222 730.509 22.6862 730.509 27.2462V42.4082ZM766.412 43.1492C758.261 43.1492 753.188 37.1642 753.188 28.4432C753.188 19.6652 758.318 13.3952 766.811 13.3952C770.744 13.3952 774.221 15.0482 775.988 17.8412V0.000202119H782.885V42.4082H776.501L776.045 38.0192C774.335 41.2682 770.687 43.1492 766.412 43.1492ZM767.951 36.7652C772.796 36.7652 775.931 33.2882 775.931 28.2152C775.931 23.1422 772.796 19.6082 767.951 19.6082C763.106 19.6082 760.142 23.1992 760.142 28.2152C760.142 33.2312 763.106 36.7652 767.951 36.7652ZM800.448 43.1492C792.069 43.1492 786.198 37.0502 786.198 28.3292C786.198 19.4942 791.955 13.3952 800.22 13.3952C808.656 13.3952 814.014 19.0382 814.014 27.8162V29.9252L792.81 29.9822C793.323 34.9412 795.945 37.4492 800.562 37.4492C804.381 37.4492 806.889 35.9672 807.687 33.2882H814.129C812.931 39.4442 807.801 43.1492 800.448 43.1492ZM800.277 19.0952C796.173 19.0952 793.665 21.3182 792.981 25.5362H807.117C807.117 21.6602 804.438 19.0952 800.277 19.0952ZM834.97 14.1362V20.5772H832.405C827.389 20.5772 824.254 23.2562 824.254 28.7282V42.4082H817.3V14.3072H823.855L824.254 18.4112C825.451 15.6182 828.13 13.7372 831.892 13.7372C832.861 13.7372 833.83 13.8512 834.97 14.1362Z" fill="white"/>
</svg>
